<?xml version="1.0" standalone="no"?>
<!DOCTYPE svg PUBLIC "-//W3C//DTD SVG 20010904//EN"
 "http://www.w3.org/TR/2001/REC-SVG-20010904/DTD/svg10.dtd">
<svg version="1.0" xmlns="http://www.w3.org/2000/svg"
 width="500.000000pt" height="500.000000pt" viewBox="0 0 500.000000 500.000000"
 preserveAspectRatio="xMidYMid meet">

<g transform="translate(0.000000,500.000000) scale(0.100000,-0.100000)"
fill="#000000" stroke="none">
<path d="M2528 2933 c-14 -16 -32 -41 -41 -58 -23 -47 -84 -253 -96 -325 -6
-36 -20 -96 -29 -133 -15 -56 -24 -71 -49 -87 -55 -33 -80 -89 -51 -118 21
-21 48 -13 81 22 41 44 92 70 189 95 95 26 128 40 128 58 0 18 -96 17 -175 -1
-33 -8 -61 -13 -63 -12 -5 5 98 353 122 412 24 59 69 124 86 124 21 0 9 -70
-21 -128 -47 -90 -23 -122 45 -62 46 41 72 109 60 158 -19 77 -133 111 -186
55z"/>
<path d="M1325 2916 c-134 -142 -320 -625 -302 -783 5 -48 40 -93 71 -93 21 0
65 39 82 73 20 37 54 154 54 182 0 15 12 25 50 38 39 14 60 31 98 77 42 52 51
59 84 59 l37 1 -33 -72 c-39 -87 -49 -130 -36 -162 14 -37 44 -50 77 -32 40
20 183 176 183 199 0 5 3 8 6 5 3 -3 2 -23 -2 -43 -5 -26 -9 -33 -15 -23 -6 9
-9 7 -9 -8 0 -32 41 -86 74 -97 41 -14 85 12 138 81 84 108 78 105 71 40 -6
-55 -5 -58 30 -93 41 -41 79 -45 119 -12 40 33 199 238 192 248 -11 18 -24 7
-93 -80 -74 -94 -126 -141 -156 -141 -16 0 -17 7 -12 58 8 77 14 89 43 96 14
4 50 30 80 59 59 58 71 99 36 130 -51 46 -123 21 -170 -59 -47 -80 -168 -238
-199 -261 -17 -12 -39 -23 -49 -25 -17 -3 -19 3 -18 49 2 78 10 100 39 107 15
4 51 30 81 59 42 41 54 60 54 84 0 46 -32 68 -97 64 -29 -1 -79 -53 -110 -115
-29 -58 -155 -232 -187 -258 -48 -40 -47 -18 4 109 22 54 38 103 36 109 -2 6
-25 14 -51 16 -25 3 -49 9 -53 12 -4 4 1 21 11 37 23 42 22 49 -11 49 -39 0
-62 -28 -62 -76 0 -35 -7 -46 -52 -91 -81 -78 -118 -90 -118 -38 0 34 -10 55
-26 55 -20 0 -28 -47 -15 -90 10 -33 8 -49 -14 -117 -26 -83 -75 -163 -99
-163 -34 0 -26 75 28 251 20 65 35 89 103 170 100 119 135 170 178 261 37 76
47 152 23 176 -22 22 -60 13 -93 -22z m70 -48 c-13 -62 -82 -193 -144 -276
-35 -46 -65 -81 -67 -79 -10 10 114 275 163 349 33 49 57 52 48 6z m485 -289
c0 -23 -11 -42 -42 -73 -52 -52 -59 -35 -17 44 35 66 59 78 59 29z m280 3 c0
-20 -13 -41 -45 -72 -53 -52 -57 -40 -14 41 34 64 59 77 59 31z m-193 -234
c-3 -7 -5 -2 -5 12 0 14 2 19 5 13 2 -7 2 -19 0 -25z"/>
<path d="M3496 2649 c-15 -12 -45 -57 -67 -101 -22 -44 -56 -93 -75 -110 -59
-52 -85 -71 -90 -65 -15 15 12 103 49 158 39 58 40 62 26 87 -7 14 -20 27 -27
30 -16 5 -70 -51 -134 -142 l-50 -71 7 44 c7 42 33 108 58 144 10 14 9 19 -3
27 -36 24 -54 7 -87 -80 -18 -47 -32 -96 -33 -109 0 -43 -99 -176 -116 -158
-12 11 15 145 38 192 21 43 21 45 3 65 -23 25 -36 25 -69 -1 -20 -15 -26 -17
-26 -6 0 23 -40 67 -60 67 -30 0 -79 -34 -104 -71 -79 -118 -83 -269 -8 -269
31 0 93 58 132 123 12 21 24 37 25 35 2 -2 -1 -24 -7 -49 -14 -62 -3 -113 29
-139 14 -11 30 -20 34 -20 16 0 84 68 109 109 18 28 30 39 42 35 20 -6 32 7
100 103 28 40 53 71 55 69 3 -2 -3 -15 -12 -29 -20 -32 -35 -125 -24 -154 4
-12 21 -29 36 -37 35 -17 55 -9 99 41 l31 35 -4 -53 c-7 -93 33 -142 101 -125
29 7 109 77 157 139 22 27 39 45 39 40 0 -4 5 -1 11 7 8 12 9 10 5 -10 -3 -14
-6 -34 -7 -45 -1 -17 -2 -16 -9 5 -7 21 -8 18 -9 -18 -1 -37 4 -49 33 -78 39
-39 66 -42 106 -14 31 22 193 223 198 246 7 31 -19 11 -65 -48 -148 -194 -219
-226 -192 -88 10 53 16 63 43 77 52 27 104 74 117 106 26 63 4 97 -62 97 -47
0 -82 -28 -121 -97 -45 -79 -159 -220 -203 -250 -34 -23 -38 -24 -53 -9 -14
14 -15 26 -5 88 13 86 69 247 90 255 23 9 28 -5 15 -54 -14 -52 -12 -58 17
-48 29 9 38 67 17 111 -12 27 -22 34 -44 34 -16 0 -41 -9 -56 -21z m374 -68
c0 -19 -13 -40 -42 -69 -64 -64 -72 -58 -32 21 45 89 74 108 74 48z m-1004
-40 c7 -26 7 -45 1 -58 -20 -36 -98 -133 -108 -133 -23 0 33 172 69 213 22 24
27 22 38 -22z"/>
</g>
</svg>
