<?xml version="1.0" encoding="utf-8"?>
<!-- Svg Vector Icons : http://www.onlinewebfonts.com/icon -->
<!DOCTYPE svg PUBLIC "-//W3C//DTD SVG 1.1//EN" "http://www.w3.org/Graphics/SVG/1.1/DTD/svg11.dtd">
<svg version="1.1" xmlns="http://www.w3.org/2000/svg" xmlns:xlink="http://www.w3.org/1999/xlink" x="0px" y="0px" viewBox="0 0 256 256" enable-background="new 0 0 256 256" xml:space="preserve">
<metadata> Svg Vector Icons : http://www.onlinewebfonts.com/icon </metadata>
<g><g><path fill="#000000" d="M225.2,41.2h-38.4v-14c0-3.9-3.2-7-7-7c-3.9,0-7,3.2-7,7v14H82.2v-14c0-3.9-3.2-7-7-7c-3.9,0-7,3.2-7,7v14H30.8C19.3,41.2,10,50.6,10,62v153c0,11.5,9.3,20.8,20.8,20.8h194.4c11.5,0,20.8-9.3,20.8-20.8V62C246,50.6,236.7,41.2,225.2,41.2z M233.3,215c0,4.4-3.6,8-8,8H30.8c-4.4,0-8-3.6-8-8V62c0-4.4,3.6-8,8-8h37.4v14c0,3.9,3.2,7,7,7c3.9,0,7-3.2,7-7V54h90.6v14c0,3.9,3.2,7,7,7c3.9,0,7-3.2,7-7V54h38.4c4.4,0,8,3.6,8,8L233.3,215L233.3,215z"/><path fill="#000000" d="M51.6,99.9h31.9v31.9H51.6V99.9z"/><path fill="#000000" d="M111.8,99.9h31.9v31.9h-31.9V99.9z"/><path fill="#000000" d="M171.1,99.9H203v31.9h-31.9V99.9z"/><path fill="#000000" d="M52.3,159.9h31.9v31.9H52.3V159.9z"/><path fill="#000000" d="M112.5,159.9h31.9v31.9h-31.9V159.9z"/><path fill="#000000" d="M171.8,159.9h31.9v31.9h-31.9V159.9z"/></g></g>
</svg>