<svg width="25" height="25" viewBox="0 0 25 25" fill="none" xmlns="http://www.w3.org/2000/svg">
<path d="M12.6743 22.7161C7.15147 22.7161 2.67432 18.2389 2.67432 12.7161C2.67432 7.19322 7.15147 2.71606 12.6743 2.71606C18.1972 2.71606 22.6743 7.19322 22.6743 12.7161C22.6683 18.2364 18.1947 22.71 12.6743 22.7161ZM12.6743 4.71606C8.25604 4.71606 4.67432 8.29779 4.67432 12.7161C4.67432 17.1343 8.25604 20.7161 12.6743 20.7161C17.0926 20.7161 20.6743 17.1343 20.6743 12.7161C20.6694 8.29984 17.0905 4.72102 12.6743 4.71606ZM17.6743 13.7161H11.6743V7.71606H13.6743V11.7161H17.6743V13.7161Z" fill="#2E3A59"/>
</svg>
